<svg width="52" height="42" viewBox="0 0 52 42" fill="none" xmlns="http://www.w3.org/2000/svg">
<path fill-rule="evenodd" clip-rule="evenodd" d="M20.8615 3.87C20.9129 2.64894 20.2094 1.47005 19.0152 0.973448C17.4854 0.337272 15.7295 1.06174 15.0933 2.59159L0.888213 36.7514C0.252037 38.2813 0.976504 40.0372 2.50636 40.6734C4.03621 41.3095 5.79212 40.5851 6.4283 39.0552L9.00823 32.8511C9.61792 31.8919 10.3056 30.9511 11.0817 30.0726C14.594 26.0969 19.0241 24.6153 20.8022 24.1715C21.7221 23.9418 23.0935 23.612 24.8756 23.8045C25.1341 23.8324 25.4029 23.8715 25.6817 23.9243C25.7408 24.0697 25.8 24.2148 25.8591 24.3595C27.408 28.1486 28.9964 31.731 30.493 34.5467C31.2407 35.9535 31.9786 37.1941 32.6906 38.1824C33.3818 39.1417 34.1298 39.9802 34.9267 40.4503C35.7397 40.93 36.5565 41.2307 37.3477 41.2556C38.1807 41.2819 38.9377 40.9966 39.5044 40.4092C40.0405 39.8535 40.3153 39.1237 40.4337 38.3935C40.5533 37.6554 40.5282 36.8321 40.3905 35.9785C39.845 32.5986 37.4236 28.0774 33.0499 24.735C31.0659 23.2188 29.2083 22.3122 27.5229 21.805C25.0117 15.5282 22.6215 8.81411 20.9227 4.04208L20.9225 4.04136L20.8615 3.87ZM19.524 7.56319L11.9173 25.8554C15.2237 23.241 18.6132 22.1412 20.1967 21.7459C21.101 21.5202 22.6366 21.143 24.6228 21.2736C22.7467 16.5031 20.9656 11.5949 19.524 7.56319ZM36.6068 32.6921C37.6539 35.4066 35.1766 36.7396 33.4776 34.7759C33.2247 34.3401 32.9654 33.8718 32.7005 33.3734C31.4685 31.0555 30.1535 28.1607 28.8358 25.0151C29.6828 25.4397 30.5833 25.9965 31.5319 26.7214C33.8958 28.5279 35.5783 30.6941 36.6354 32.7205L36.6068 32.6921ZM48.3425 41.1921C49.9994 41.1921 51.3425 39.8489 51.3425 38.1921C51.3425 36.5352 49.9994 35.1921 48.3425 35.1921C46.6857 35.1921 45.3425 36.5352 45.3425 38.1921C45.3425 39.8489 46.6857 41.1921 48.3425 41.1921Z" fill="white"/>
</svg>
